<?xml version="1.0" standalone="no"?>
<!DOCTYPE svg PUBLIC "-//W3C//DTD SVG 20010904//EN"
 "http://www.w3.org/TR/2001/REC-SVG-20010904/DTD/svg10.dtd">
<svg version="1.0" xmlns="http://www.w3.org/2000/svg"
 width="500.000000pt" height="500.000000pt" viewBox="0 0 500.000000 500.000000"
 preserveAspectRatio="xMidYMid meet">

<g transform="translate(0.000000,500.000000) scale(0.100000,-0.100000)"
fill="#000000" stroke="none">
<path d="M0 2225 l0 -2225 2500 0 2500 0 0 2225 0 2225 -2500 0 -2500 0 0
-2225z m2608 1869 c14 -4 22 -14 22 -28 0 -32 -13 -47 -30 -36 -23 15 -57 12
-74 -6 -21 -20 -22 -107 -1 -124 8 -7 32 -10 55 -8 40 4 41 3 38 -27 -3 -29
-5 -30 -56 -33 -64 -4 -97 14 -118 63 -49 119 43 231 164 199z m-264 -20 c13
-33 6 -44 -25 -44 l-32 0 7 -52 c3 -29 9 -76 12 -104 6 -50 6 -51 -21 -58 -31
-8 -45 5 -45 42 0 13 -5 53 -11 90 l-11 68 -35 -4 c-33 -4 -34 -3 -31 24 3 28
6 29 78 40 105 16 107 16 114 -2z m401 -50 c-5 -44 -4 -54 8 -54 8 0 29 -3 46
-6 29 -6 31 -5 31 22 0 16 3 40 7 52 5 20 10 23 36 18 17 -3 32 -8 34 -10 2
-2 -6 -50 -17 -107 -11 -57 -20 -115 -20 -128 0 -21 -3 -23 -32 -17 -17 3 -33
8 -36 10 -2 3 0 25 6 50 9 44 9 46 -14 51 -78 16 -71 19 -78 -35 -6 -43 -10
-50 -29 -50 -43 0 -45 9 -25 130 10 63 21 120 23 126 2 6 17 9 35 6 l32 -5 -7
-53z m-620 5 c9 -26 3 -32 -48 -44 -31 -8 -42 -16 -42 -30 0 -20 8 -22 65 -14
21 3 26 -1 28 -23 3 -22 -1 -27 -30 -33 -45 -10 -47 -12 -41 -36 5 -17 11 -20
32 -15 92 21 93 21 89 -9 -3 -25 -10 -30 -68 -46 -92 -26 -95 -25 -107 24 -6
23 -21 77 -34 119 -12 43 -20 80 -17 83 7 8 128 43 150 44 9 1 20 -8 23 -20z
m970 -39 c19 -7 20 -13 13 -140 -4 -73 -9 -134 -11 -136 -2 -3 -16 0 -31 5
-20 8 -26 17 -26 39 0 24 -6 30 -37 40 -34 11 -40 10 -54 -9 -11 -16 -21 -19
-42 -14 -15 4 -27 11 -27 16 0 5 35 56 78 114 81 109 78 107 137 85z m-1203
-47 c11 -9 18 -30 18 -50 0 -26 5 -35 25 -43 28 -11 42 -51 29 -88 -10 -26
-93 -79 -132 -84 -21 -3 -29 10 -73 107 -27 60 -49 113 -49 118 0 12 102 55
134 56 16 1 38 -6 48 -16z m1398 -41 c-1 -4 -21 -45 -45 -92 l-44 -84 34 -20
c38 -21 43 -37 21 -55 -11 -10 -27 -6 -75 19 -34 16 -61 32 -61 35 0 3 26 56
57 119 l57 115 28 -15 c15 -8 28 -18 28 -22z m-1673 -74 c9 -19 7 -26 -13 -43
l-24 -20 56 -84 56 -84 -23 -18 c-13 -10 -26 -18 -29 -18 -3 0 -22 28 -43 62
-21 34 -47 72 -57 85 -18 22 -20 22 -45 6 -24 -16 -26 -16 -40 2 -8 10 -14 21
-14 24 -1 5 150 108 160 109 3 1 11 -9 16 -21z m1821 -6 l22 -17 -56 -83 c-31
-46 -54 -85 -51 -89 3 -3 21 -16 39 -28 l33 -22 86 53 c48 30 93 54 101 54 8
0 25 -11 37 -24 l22 -23 -46 -104 c-70 -155 -62 -145 -90 -119 -20 19 -22 26
-13 46 6 13 9 25 7 27 -2 1 -16 13 -31 25 -24 22 -28 22 -50 9 -22 -13 -28
-11 -104 42 l-82 57 37 54 c20 30 51 79 69 108 17 28 35 52 39 52 5 0 18 -8
31 -18z m-1983 -167 c17 -16 25 -35 25 -58 0 -34 2 -35 48 -44 51 -9 55 -16
30 -52 l-17 -24 -46 18 c-62 23 -81 8 -42 -33 l27 -28 -24 -23 -25 -23 -33 38
c-18 22 -57 65 -86 96 -30 31 -51 62 -47 68 4 6 29 29 57 50 59 47 97 52 133
15z m1015 -28 c0 -1 -39 -41 -86 -87 -79 -78 -93 -80 -42 -7 20 28 128 108
128 94z m108 -37 c28 -23 74 -68 101 -101 49 -58 55 -74 108 -253 3 -12 1 -16
-6 -12 -15 10 -14 -5 4 -47 17 -42 19 -61 5 -52 -5 3 -10 1 -10 -4 0 -6 -28
-39 -63 -73 -34 -35 -90 -109 -125 -165 -34 -56 -67 -105 -73 -109 -16 -10
-47 23 -112 121 l-59 90 55 -52 c30 -29 67 -55 82 -59 55 -14 138 56 187 155
32 66 32 178 -1 241 -13 25 -35 58 -50 74 -15 16 -20 27 -11 24 8 -2 33 -30
55 -62 43 -63 55 -57 31 15 -9 24 -11 45 -6 47 18 7 -14 63 -57 102 -50 44
-47 52 6 19 l35 -21 -16 24 c-8 12 -44 45 -79 72 -35 27 -65 52 -67 57 -8 19
18 7 66 -31z m1218 -67 c17 -27 17 -29 -9 -103 -15 -42 -27 -79 -27 -84 0 -4
25 14 55 40 54 46 56 46 75 29 11 -10 19 -22 18 -25 -5 -11 -187 -160 -195
-160 -5 0 -16 12 -27 26 -18 25 -18 27 13 107 17 44 29 82 28 84 -2 1 -29 -20
-60 -48 l-57 -51 -20 24 -19 23 36 30 c21 17 64 54 98 83 33 28 63 52 66 52 4
0 15 -12 25 -27z m-1296 -32 c0 -45 -3 -51 -34 -70 -50 -31 -105 -96 -134
-160 -34 -72 -35 -154 -3 -226 l22 -50 -47 47 -47 46 37 144 c21 78 48 161 61
183 24 43 117 135 135 135 5 0 10 -22 10 -49z m-1215 -14 c93 -53 112 -150 41
-214 -43 -40 -84 -43 -139 -10 -98 59 -104 173 -12 228 39 24 61 24 110 -4z
m944 1 c-2 -38 -19 -50 -104 -79 -153 -51 -422 -196 -445 -239 -21 -38 -5
-346 35 -690 25 -219 31 -243 97 -377 90 -185 289 -326 580 -409 108 -31 135
-29 283 20 188 63 327 146 425 253 69 75 155 249 169 342 31 205 60 555 61
732 0 118 -1 127 -22 146 -64 59 -289 175 -431 222 -66 22 -85 33 -95 55 -8
15 -11 30 -8 33 8 9 143 -36 247 -81 118 -52 298 -158 336 -198 l28 -30 -2
-181 c-3 -403 -76 -826 -168 -983 -86 -146 -275 -278 -525 -365 -174 -60 -302
-45 -537 66 -234 110 -360 240 -427 441 -61 181 -106 541 -106 847 l0 180 38
36 c72 68 285 178 467 242 91 32 105 34 104 17z m323 -125 c44 -43 47 -61 13
-86 -25 -18 -25 -18 -26 10 l-1 28 -11 -27 c-6 -16 -17 -28 -24 -28 -8 0 -19
12 -25 28 -11 26 -12 26 -15 5 -5 -28 -15 -29 -38 -3 -18 20 -18 21 25 65 24
25 49 45 54 45 6 0 27 -17 48 -37z m371 -34 c107 -42 193 -86 289 -147 l58
-37 -1 -145 0 -145 -22 55 c-14 36 -40 74 -78 112 -67 68 -134 93 -234 86 -46
-3 -62 -1 -58 8 3 9 -43 183 -65 242 -6 17 -3 16 111 -29z m-1792 -58 c33 -33
38 -75 15 -120 -14 -26 -13 -28 19 -45 34 -18 34 -19 19 -48 l-15 -29 -42 26
c-23 14 -72 42 -109 62 -38 21 -68 41 -68 46 0 18 61 117 78 127 32 18 72 11
103 -19z m2849 0 c33 -23 78 -107 65 -119 -6 -6 -20 -13 -31 -16 -18 -6 -22
-1 -28 26 -16 80 -87 89 -150 19 -16 -18 -17 -24 -6 -51 15 -35 13 -35 46 -14
23 16 26 16 39 -2 22 -29 18 -37 -27 -62 l-42 -22 -28 27 c-15 14 -35 46 -44
70 -20 53 -8 91 42 129 60 46 113 51 164 15z m-1552 -49 c5 -16 -20 -15 -43 1
-27 20 -10 43 18 24 11 -7 23 -19 25 -25z m212 24 c0 -19 -26 -38 -47 -34 -16
3 -16 5 5 26 25 25 42 28 42 8z m-1684 -170 c19 -14 19 -15 -3 -38 -27 -28
-30 -58 -7 -58 9 0 32 14 51 30 43 38 84 40 112 4 25 -32 27 -74 5 -117 -29
-56 -33 -59 -64 -40 l-28 16 29 28 c32 30 39 69 13 69 -9 0 -32 -13 -51 -30
-93 -82 -180 19 -112 128 16 26 28 27 55 8z m3167 -64 c25 -61 28 -75 16 -83
-26 -16 -36 -9 -53 36 -17 44 -29 52 -54 37 -10 -7 -9 -16 3 -46 18 -42 18
-41 -12 -50 -18 -6 -25 -1 -40 33 -17 37 -20 39 -40 28 l-22 -12 21 -48 c23
-52 23 -52 -8 -61 -19 -6 -25 3 -54 71 -17 43 -28 79 -24 80 5 2 54 23 109 48
55 24 106 43 114 42 8 -1 28 -35 44 -75z m-2133 30 c-49 -33 -123 -97 -127
-109 -3 -9 3 -9 26 0 17 6 33 8 37 5 10 -11 -26 -107 -53 -139 -14 -17 -41
-58 -59 -92 -19 -34 -34 -59 -34 -56 0 14 40 119 64 167 28 55 26 63 -8 35
-18 -16 -17 -14 3 15 12 17 18 32 13 32 -5 0 -22 -19 -38 -42 -36 -52 -44 -30
-14 40 28 66 86 120 152 143 65 22 70 23 38 1z m283 -169 c34 -5 44 -14 83
-74 27 -41 57 -73 74 -81 29 -13 30 -14 30 -89 l0 -77 -37 -4 c-21 -3 -58 0
-82 5 -32 7 -50 6 -64 -2 -16 -11 -17 -10 -8 8 14 26 14 31 -4 31 -9 0 -16 14
-20 38 -3 20 -15 60 -26 87 -12 28 -25 66 -29 85 -5 19 -12 45 -15 58 -7 20
-4 22 26 22 19 0 51 -3 72 -7z m552 -23 c-11 -22 -15 -62 -15 -162 l0 -134
-40 -39 -40 -39 -82 20 -83 20 -3 95 c-3 93 -2 97 23 113 14 9 43 45 65 81 44
68 48 71 143 74 l48 1 -16 -30z m-665 1 c14 -28 12 -36 -5 -21 -9 8 -15 9 -15
2 0 -6 4 -13 9 -16 5 -3 11 -15 14 -27 5 -19 4 -20 -11 -6 -10 9 -37 25 -62
35 l-45 20 35 16 c47 21 67 20 80 -3z m760 4 c31 -18 16 -18 -30 0 -23 9 -28
14 -15 14 11 0 31 -6 45 -14z m-1065 -137 c-28 -98 -29 -95 13 -102 36 -5 112
-49 112 -64 0 -4 -20 -15 -45 -26 -25 -10 -54 -31 -65 -46 -29 -40 -44 -126
-33 -181 l9 -44 29 45 30 45 8 -55 c15 -95 36 -158 64 -191 l27 -32 -31 17
c-39 19 -73 62 -80 98 -3 16 -10 31 -16 35 -7 4 -8 -14 -4 -53 l6 -59 -20 25
c-28 35 -71 121 -65 127 3 3 8 -2 12 -11 3 -9 10 -16 15 -16 5 0 3 12 -4 28
-20 38 -29 114 -21 170 5 39 14 55 56 95 l50 47 -33 0 c-19 0 -49 -4 -67 -9
-22 -7 -32 -6 -32 1 0 13 87 198 93 198 3 0 -1 -19 -8 -42z m313 15 c2 -9 -10
-13 -41 -13 -80 0 -81 -4 -17 -88 l57 -76 -36 -17 c-37 -16 -118 -97 -141
-139 -11 -21 -11 -23 11 -17 49 14 159 20 159 10 0 -6 -22 -13 -48 -17 -27 -3
-57 -13 -68 -21 -17 -13 -16 -13 16 -5 62 17 66 11 13 -20 -48 -28 -83 -63
-83 -83 0 -5 18 7 40 27 37 33 70 52 42 24 -29 -29 -9 -27 24 2 46 40 73 50
132 50 71 -1 135 -28 269 -116 67 -43 141 -90 163 -104 l42 -25 -40 -17 c-80
-35 -159 -50 -294 -55 -75 -3 -153 -2 -172 1 -34 6 -36 9 -36 44 0 34 -4 39
-34 50 -51 19 -110 66 -156 123 -32 41 -40 59 -40 93 0 62 44 120 144 188 l58
40 -67 68 c-66 66 -67 68 -45 80 23 12 104 29 129 26 8 0 16 -7 19 -13z m818
-15 c10 -11 4 -23 -37 -66 -27 -29 -49 -51 -49 -47 0 3 21 28 46 55 l47 50
-62 0 c-34 0 -71 -5 -82 -10 -23 -13 -25 -2 -5 26 13 19 21 20 72 13 31 -4 63
-14 70 -21z m-64 -202 c3 -34 7 -40 38 -50 28 -9 36 -18 43 -49 5 -21 7 -40 4
-43 -5 -5 -154 18 -242 37 -27 7 -90 27 -139 46 -107 41 -171 54 -204 42 -29
-11 -35 -8 -26 15 9 22 21 21 205 -24 90 -21 200 -44 244 -49 44 -6 91 -13
105 -16 15 -3 11 0 -10 9 -19 8 -50 15 -69 15 -30 1 -33 3 -26 24 4 12 9 35
12 50 5 28 40 52 55 38 4 -3 8 -23 10 -45z m-562 14 c20 -6 21 -8 5 -8 -11 0
-33 4 -50 8 -27 7 -27 8 -5 8 14 0 36 -4 50 -8z m-6 -28 c2 -4 -12 -6 -32 -4
-62 6 -69 10 -20 11 26 0 49 -3 52 -7z m-40 -107 c25 -4 46 -12 46 -17 0 -5
-8 -7 -17 -5 -10 3 -35 8 -55 12 -21 3 -40 11 -44 17 -5 7 -2 9 8 6 9 -4 36
-10 62 -13z m147 -38 c19 -15 28 -35 32 -64 l5 -42 -59 41 c-51 37 -59 46 -59
74 0 32 1 33 28 23 15 -5 39 -19 53 -32z m-101 -7 c0 -12 -8 -12 -35 0 -18 8
-17 9 8 9 15 1 27 -3 27 -9z m448 -163 c57 -19 106 -37 109 -40 3 -3 -13 -11
-35 -18 -31 -9 -38 -15 -35 -30 9 -33 -24 -22 -47 16 -12 19 -26 35 -32 35 -6
0 -3 -11 6 -25 9 -14 12 -25 6 -25 -23 0 -89 41 -95 59 -3 11 -13 25 -22 33
-14 11 -15 10 -9 -12 7 -24 7 -24 -9 -5 -9 11 -23 29 -31 40 -14 20 -14 20 -9
-2 8 -28 1 -29 -40 -3 -29 18 -65 79 -65 109 0 5 46 -15 103 -44 56 -30 148
-69 205 -88z m247 -188 c-22 -22 -52 -50 -67 -61 l-28 -19 0 48 0 49 53 11
c82 16 83 15 42 -28z m-808 -18 c48 -16 116 -35 151 -42 l62 -12 0 -59 0 -60
-56 7 c-65 8 -139 28 -206 57 l-48 20 0 59 c0 33 2 59 4 59 3 0 44 -13 93 -29z
m601 -43 l-3 -63 -80 -27 c-44 -15 -108 -30 -142 -34 l-63 -7 0 60 0 59 73 12
c40 6 102 22 137 35 36 14 69 25 73 26 4 0 7 -27 5 -61z m-548 -119 c65 -21
94 -24 225 -23 126 0 161 4 215 22 78 26 89 23 21 -7 -129 -55 -287 -69 -410
-37 -87 23 -201 76 -201 93 0 10 8 9 38 -6 20 -10 71 -30 112 -42z m-1417
-329 c24 -27 27 -38 27 -96 0 -62 -2 -68 -34 -100 -30 -30 -41 -34 -84 -34
-60 0 -95 24 -112 76 -15 44 -8 105 15 140 40 61 139 69 188 14z m-253 12 c15
-12 22 -30 23 -54 2 -62 -44 -108 -109 -108 -21 0 -24 -4 -24 -40 0 -38 -2
-40 -30 -40 l-30 0 0 130 0 130 74 0 c56 0 79 -4 96 -18z m510 -2 c0 -12 -27
-58 -60 -103 l-61 -82 61 -3 c56 -3 60 -4 60 -27 0 -25 -1 -25 -100 -25 l-100
0 0 26 c0 15 23 55 60 105 l61 79 -61 0 c-57 0 -60 1 -60 25 l0 25 100 0 c94
0 100 -1 100 -20z m221 10 c47 -26 64 -121 33 -186 -23 -48 -59 -64 -142 -64
l-70 0 -1 130 -1 130 81 0 c44 0 89 -5 100 -10z m269 -15 c0 -24 -3 -25 -55
-25 -52 0 -55 -1 -55 -25 0 -23 4 -25 46 -25 38 0 45 -3 40 -16 -3 -9 -6 -20
-6 -25 0 -5 -18 -9 -39 -9 -45 0 -53 -7 -44 -38 5 -19 12 -22 59 -22 51 0 54
-1 54 -25 0 -25 -1 -25 -89 -25 l-89 0 -1 130 -1 130 90 0 c89 0 90 0 90 -25z
m116 -92 c-9 -144 -10 -149 -48 -169 -28 -14 -32 -14 -46 0 -15 15 -14 17 6
32 20 14 22 23 22 115 0 92 -1 99 -20 99 -13 0 -20 7 -20 20 0 18 7 20 56 20
l57 0 -7 -117z m169 47 c11 -38 22 -70 25 -70 3 0 16 32 29 70 l22 70 38 0 38
0 7 -102 c4 -57 9 -115 12 -130 5 -26 3 -28 -25 -28 -30 0 -31 2 -32 43 0 23
-3 60 -7 82 l-8 40 -25 -65 c-21 -55 -29 -65 -51 -68 -24 -3 -28 2 -49 65 -22
64 -23 66 -30 38 -4 -16 -7 -54 -8 -82 -1 -52 -1 -53 -32 -53 -24 0 -29 4 -25
18 2 9 7 53 11 97 11 143 12 145 54 145 l37 0 19 -70z m285 -60 l0 -130 -32 0
-33 0 0 130 0 130 32 0 33 0 0 -130z m142 18 c-3 -142 -6 -154 -42 -173 -37
-19 -46 -19 -54 1 -4 11 1 22 14 31 18 13 20 25 20 114 0 92 -1 99 -20 99 -13
0 -20 7 -20 20 0 17 7 20 53 20 l52 0 -3 -112z m228 95 c0 -36 34 -173 41
-166 16 18 39 123 33 152 -6 29 -5 31 23 31 30 0 31 -1 54 -95 12 -52 26 -92
30 -88 3 5 17 47 29 96 22 85 24 87 53 87 19 0 28 -4 24 -12 -2 -7 -21 -66
-41 -130 l-37 -118 -34 0 c-32 0 -34 3 -53 58 l-19 57 -17 -57 c-17 -56 -19
-58 -51 -58 -23 0 -35 5 -39 18 -3 9 -19 68 -35 130 l-29 112 34 0 c26 0 34
-4 34 -17z m382 -33 c11 -27 24 -50 28 -50 3 0 17 23 30 50 21 45 27 50 55 50
l32 0 -43 -82 c-33 -64 -43 -94 -44 -130 0 -48 0 -48 -34 -48 -34 0 -34 1 -29
38 3 29 -4 56 -36 125 -23 48 -41 90 -41 92 0 3 14 5 31 5 27 0 32 -5 51 -50z
m358 28 c0 -13 -27 -59 -59 -103 l-59 -80 59 -3 c55 -3 59 -5 59 -27 0 -25 -1
-25 -100 -25 -98 0 -100 0 -100 23 0 13 27 59 59 103 l60 79 -60 3 c-55 3 -59
5 -59 27 0 25 1 25 100 25 97 0 100 -1 100 -22z m105 -68 c10 -50 21 -92 25
-95 12 -7 42 129 35 158 -7 25 -5 27 23 27 21 0 32 -6 36 -17 2 -10 13 -51 22
-90 10 -40 21 -73 25 -73 4 0 17 41 30 90 23 86 25 90 51 90 16 0 28 -3 28 -7
0 -5 -18 -62 -39 -128 l-38 -120 -35 -3 c-33 -3 -34 -2 -53 55 l-18 58 -17
-55 c-17 -52 -19 -55 -54 -58 -20 -2 -36 -1 -36 1 0 2 -13 56 -30 118 -16 63
-30 120 -30 127 0 7 12 12 28 12 27 0 29 -2 47 -90z m467 25 c10 -33 27 -90
37 -127 l19 -68 -33 0 c-27 0 -34 4 -37 23 -3 19 -10 22 -49 25 -43 3 -47 1
-53 -23 -5 -20 -13 -25 -37 -25 -24 0 -29 3 -25 18 3 9 22 68 41 130 l36 113
41 -3 c42 -3 42 -3 60 -63z m209 -11 l44 -77 3 77 3 76 29 0 30 0 0 -130 0
-130 -35 0 c-33 0 -37 4 -82 83 l-48 82 -3 -82 c-3 -83 -3 -83 -30 -83 l-27 0
0 130 0 130 36 0 c35 0 39 -3 80 -76z m238 -54 l0 -130 -34 0 -33 0 -1 130 -1
130 35 0 35 0 -1 -130z m239 108 c-3 -20 -10 -23 -60 -26 -54 -3 -58 -5 -58
-27 0 -23 4 -25 45 -25 41 0 45 -2 45 -25 0 -23 -4 -25 -45 -25 -43 0 -45 -1
-45 -30 l0 -30 61 0 c52 0 60 -2 55 -16 -3 -9 -6 -20 -6 -25 0 -5 -38 -9 -85
-9 l-85 0 0 130 0 130 91 0 c88 0 90 -1 87 -22z"/>
<path d="M3020 3889 c-24 -33 -24 -34 8 -43 20 -7 22 -4 22 33 0 23 -2 41 -4
41 -3 0 -14 -14 -26 -31z"/>
<path d="M1796 3892 c-8 -14 5 -52 19 -52 19 0 38 28 31 45 -6 16 -41 21 -50
7z"/>
<path d="M1846 3797 c-15 -11 -17 -17 -7 -35 14 -26 21 -27 45 -9 21 15 18 50
-4 55 -9 1 -24 -4 -34 -11z"/>
<path d="M3553 3597 c-38 -26 -40 -33 -13 -47 17 -9 22 -5 40 30 23 45 19 48
-27 17z"/>
<path d="M1357 3602 c-16 -17 -15 -20 8 -42 27 -25 55 -21 55 9 0 19 -24 51
-39 51 -4 0 -15 -8 -24 -18z"/>
<path d="M1175 3406 c-21 -31 -9 -56 43 -91 46 -31 67 -32 87 -1 20 30 10 54
-39 91 -41 32 -71 32 -91 1z"/>
<path d="M1029 3204 c-11 -14 -10 -18 6 -31 43 -32 54 -34 65 -14 13 25 13 27
-6 45 -20 21 -48 20 -65 0z"/>
<path d="M752 1448 c-16 -16 -15 -110 1 -130 17 -21 38 -27 63 -17 28 10 39
65 24 119 -10 36 -14 40 -43 40 -18 0 -38 -5 -45 -12z"/>
<path d="M527 1463 c-4 -3 -7 -24 -7 -45 0 -34 3 -38 25 -38 22 0 45 24 45 49
0 25 -47 51 -63 34z"/>
<path d="M1248 1398 c-5 -89 -2 -98 38 -98 40 0 54 21 54 80 0 59 -14 80 -54
80 l-34 0 -4 -62z"/>
<path d="M3811 1427 c-6 -15 -14 -39 -17 -52 -6 -23 -3 -25 25 -25 34 0 34 -1
11 80 l-7 25 -12 -28z"/>
</g>
</svg>
