<?xml version="1.0" standalone="no"?>
<!DOCTYPE svg PUBLIC "-//W3C//DTD SVG 20010904//EN"
 "http://www.w3.org/TR/2001/REC-SVG-20010904/DTD/svg10.dtd">
<svg version="1.0" xmlns="http://www.w3.org/2000/svg"
 width="500.000000pt" height="500.000000pt" viewBox="0 0 500.000000 500.000000"
 preserveAspectRatio="xMidYMid meet">

<g transform="translate(0.000000,500.000000) scale(0.100000,-0.100000)"
fill="#000000" stroke="none">
<path d="M2347 4020 c-624 -71 -1118 -521 -1253 -1140 -15 -68 -19 -126 -19
-285 1 -180 4 -211 27 -311 103 -438 375 -781 771 -975 197 -97 392 -141 622
-141 171 0 298 20 456 72 209 69 377 171 539 326 206 198 340 435 406 721 25
105 28 138 28 293 0 142 -4 196 -22 288 -55 277 -175 508 -368 711 -127 134
-240 218 -399 296 -196 97 -367 140 -585 149 -69 2 -160 1 -203 -4z m348 -292
c150 -23 333 -99 470 -196 154 -108 274 -250 361 -427 260 -529 96 -1138 -396
-1472 -109 -74 -276 -142 -417 -170 -116 -23 -328 -22 -438 2 -235 50 -425
153 -590 320 -236 237 -345 522 -332 864 14 372 201 699 521 912 232 154 522
213 821 167z"/>
<path d="M2455 3694 c-89 -46 -207 -167 -230 -235 -9 -27 -20 -33 -100 -60
-153 -51 -422 -196 -445 -239 -21 -38 -5 -346 35 -690 25 -219 31 -243 97
-377 90 -185 289 -326 580 -409 108 -31 135 -29 283 20 188 63 327 146 425
253 69 75 155 249 169 342 31 205 60 555 61 732 0 118 -1 127 -22 146 -64 59
-289 175 -431 222 -78 26 -83 30 -104 72 -29 61 -111 150 -185 199 -66 44 -88
48 -133 24z m15 -67 c0 -1 -39 -41 -86 -87 -79 -78 -93 -80 -42 -7 20 28 128
108 128 94z m108 -37 c28 -23 74 -68 101 -101 49 -58 55 -74 108 -253 3 -12 1
-16 -6 -12 -15 10 -14 -5 4 -47 17 -42 19 -61 5 -52 -5 3 -10 1 -10 -4 0 -6
-28 -39 -63 -73 -34 -35 -90 -109 -125 -165 -34 -56 -67 -105 -73 -109 -16
-10 -47 23 -112 121 l-59 90 55 -52 c30 -29 67 -55 82 -59 55 -14 138 56 187
155 32 66 32 178 -1 241 -13 25 -35 58 -50 74 -15 16 -20 27 -11 24 8 -2 33
-30 55 -62 43 -63 55 -57 31 15 -9 24 -11 45 -6 47 18 7 -14 63 -57 102 -50
44 -47 52 6 19 l35 -21 -16 24 c-8 12 -44 45 -79 72 -35 27 -65 52 -67 57 -8
19 18 7 66 -31z m-78 -99 c0 -45 -3 -51 -34 -70 -50 -31 -105 -96 -134 -160
-34 -72 -35 -154 -3 -226 l22 -50 -47 47 -47 46 37 144 c21 78 48 161 61 183
24 43 117 135 135 135 5 0 10 -22 10 -49z m52 -138 c44 -43 47 -61 13 -86 -25
-18 -25 -18 -26 10 l-1 28 -11 -27 c-6 -16 -17 -28 -24 -28 -8 0 -19 12 -25
28 -11 26 -12 26 -15 5 -5 -28 -15 -29 -38 -3 -18 20 -18 21 25 65 24 25 49
45 54 45 6 0 27 -17 48 -37z m371 -34 c107 -42 193 -86 289 -147 l58 -37 -1
-145 0 -145 -22 55 c-14 36 -40 74 -78 112 -67 68 -134 93 -234 86 -46 -3 -62
-1 -58 8 3 9 -43 183 -65 242 -6 17 -3 16 111 -29z m-495 -107 c5 -16 -20 -15
-43 1 -27 20 -10 43 18 24 11 -7 23 -19 25 -25z m212 24 c0 -19 -26 -38 -47
-34 -16 3 -16 5 5 26 25 25 42 28 42 8z m-650 -204 c-49 -33 -123 -97 -127
-109 -3 -9 3 -9 26 0 17 6 33 8 37 5 10 -11 -26 -107 -53 -139 -14 -17 -41
-58 -59 -92 -19 -34 -34 -59 -34 -56 0 14 40 119 64 167 28 55 26 63 -8 35
-18 -16 -17 -14 3 15 12 17 18 32 13 32 -5 0 -22 -19 -38 -42 -36 -52 -44 -30
-14 40 28 66 86 120 152 143 65 22 70 23 38 1z m283 -169 c34 -5 44 -14 83
-74 27 -41 57 -73 74 -81 29 -13 30 -14 30 -89 l0 -77 -37 -4 c-21 -3 -58 0
-82 5 -32 7 -50 6 -64 -2 -16 -11 -17 -10 -8 8 14 26 14 31 -4 31 -9 0 -16 14
-20 38 -3 20 -15 60 -26 87 -12 28 -25 66 -29 85 -5 19 -12 45 -15 58 -7 20
-4 22 26 22 19 0 51 -3 72 -7z m552 -23 c-11 -22 -15 -62 -15 -162 l0 -134
-40 -39 -40 -39 -82 20 -83 20 -3 95 c-3 93 -2 97 23 113 14 9 43 45 65 81 44
68 48 71 143 74 l48 1 -16 -30z m-665 1 c14 -28 12 -36 -5 -21 -9 8 -15 9 -15
2 0 -6 4 -13 9 -16 5 -3 11 -15 14 -27 5 -19 4 -20 -11 -6 -10 9 -37 25 -62
35 l-45 20 35 16 c47 21 67 20 80 -3z m760 4 c31 -18 16 -18 -30 0 -23 9 -28
14 -15 14 11 0 31 -6 45 -14z m-1065 -137 c-28 -98 -29 -95 13 -102 36 -5 112
-49 112 -64 0 -4 -20 -15 -45 -26 -25 -10 -54 -31 -65 -46 -29 -40 -44 -126
-33 -181 l9 -44 29 45 30 45 8 -55 c15 -95 36 -158 64 -191 l27 -32 -31 17
c-39 19 -73 62 -80 98 -3 16 -10 31 -16 35 -7 4 -8 -14 -4 -53 l6 -59 -20 25
c-28 35 -71 121 -65 127 3 3 8 -2 12 -11 3 -9 10 -16 15 -16 5 0 3 12 -4 28
-20 38 -29 114 -21 170 5 39 14 55 56 95 l50 47 -33 0 c-19 0 -49 -4 -67 -9
-22 -7 -32 -6 -32 1 0 13 87 198 93 198 3 0 -1 -19 -8 -42z m313 15 c2 -9 -10
-13 -41 -13 -80 0 -81 -4 -17 -88 l57 -76 -36 -17 c-37 -16 -118 -97 -141
-139 -11 -21 -11 -23 11 -17 49 14 159 20 159 10 0 -6 -22 -13 -48 -17 -27 -3
-57 -13 -68 -21 -17 -13 -16 -13 16 -5 62 17 66 11 13 -20 -48 -28 -83 -63
-83 -83 0 -5 18 7 40 27 37 33 70 52 42 24 -29 -29 -9 -27 24 2 46 40 73 50
132 50 71 -1 135 -28 269 -116 67 -43 141 -90 163 -104 l42 -25 -40 -17 c-80
-35 -159 -50 -294 -55 -75 -3 -153 -2 -172 1 -34 6 -36 9 -36 44 0 34 -4 39
-34 50 -51 19 -110 66 -156 123 -32 41 -40 59 -40 93 0 62 44 120 144 188 l58
40 -67 68 c-66 66 -67 68 -45 80 23 12 104 29 129 26 8 0 16 -7 19 -13z m818
-15 c10 -11 4 -23 -37 -66 -27 -29 -49 -51 -49 -47 0 3 21 28 46 55 l47 50
-62 0 c-34 0 -71 -5 -82 -10 -23 -13 -25 -2 -5 26 13 19 21 20 72 13 31 -4 63
-14 70 -21z m-64 -202 c3 -34 7 -40 38 -50 28 -9 36 -18 43 -49 5 -21 7 -40 4
-43 -5 -5 -154 18 -242 37 -27 7 -90 27 -139 46 -107 41 -171 54 -204 42 -29
-11 -35 -8 -26 15 9 22 21 21 205 -24 90 -21 200 -44 244 -49 44 -6 91 -13
105 -16 15 -3 11 0 -10 9 -19 8 -50 15 -69 15 -30 1 -33 3 -26 24 4 12 9 35
12 50 5 28 40 52 55 38 4 -3 8 -23 10 -45z m-562 14 c20 -6 21 -8 5 -8 -11 0
-33 4 -50 8 -27 7 -27 8 -5 8 14 0 36 -4 50 -8z m-1 -29 c8 -5 -5 -7 -35 -4
-68 6 -77 11 -24 12 25 0 51 -3 59 -8z m-45 -106 c25 -4 46 -12 46 -17 0 -5
-8 -7 -17 -5 -10 3 -35 8 -55 12 -21 3 -40 11 -44 17 -5 7 -2 9 8 6 9 -4 36
-10 62 -13z m147 -38 c19 -15 28 -35 32 -64 l5 -42 -59 41 c-51 37 -59 46 -59
74 0 32 1 33 28 23 15 -5 39 -19 53 -32z m-101 -7 c0 -12 -8 -12 -35 0 -18 8
-17 9 8 9 15 1 27 -3 27 -9z m448 -163 c57 -19 106 -37 109 -40 3 -3 -13 -11
-35 -18 -31 -9 -38 -15 -35 -30 9 -33 -24 -22 -47 16 -12 19 -26 35 -32 35 -6
0 -3 -11 6 -25 9 -14 12 -25 6 -25 -23 0 -89 41 -95 59 -3 11 -13 25 -22 33
-14 11 -15 10 -9 -12 7 -24 7 -24 -9 -5 -9 11 -23 29 -31 40 -14 20 -14 20 -9
-2 8 -28 1 -29 -40 -3 -29 18 -65 79 -65 109 0 5 46 -15 103 -44 56 -30 148
-69 205 -88z m247 -188 c-22 -22 -52 -50 -67 -61 l-28 -19 0 48 0 49 53 11
c82 16 83 15 42 -28z m-808 -18 c48 -16 116 -35 151 -42 l62 -12 0 -59 0 -60
-56 7 c-65 8 -139 28 -206 57 l-48 20 0 59 c0 33 2 59 4 59 3 0 44 -13 93 -29z
m601 -43 l-3 -63 -80 -27 c-44 -15 -108 -30 -142 -34 l-63 -7 0 60 0 59 73 12
c40 6 102 22 137 35 36 14 69 25 73 26 4 0 7 -27 5 -61z m-548 -119 c65 -21
94 -24 225 -23 126 0 161 4 215 22 78 26 89 23 21 -7 -129 -55 -287 -69 -410
-37 -87 23 -201 76 -201 93 0 10 8 9 38 -6 20 -10 71 -30 112 -42z"/>
</g>
</svg>
